<?xml version="1.0" encoding="UTF-8" standalone="no"?>
<!DOCTYPE svg PUBLIC "-//W3C//DTD SVG 1.1//EN"
 "http://www.w3.org/Graphics/SVG/1.1/DTD/svg11.dtd">
<!-- Generated by graphviz version 2.40.1 (20161225.0304)
 -->
<!-- Title: dependencies Pages: 1 -->
<svg width="1417pt" height="284pt"
 viewBox="0.00 0.00 1417.00 284.00" xmlns="http://www.w3.org/2000/svg" xmlns:xlink="http://www.w3.org/1999/xlink">
<g id="graph0" class="graph" transform="scale(1 1) rotate(0) translate(4 280)">
<title>dependencies</title>
<polygon fill="#ffffff" stroke="transparent" points="-4,4 -4,-280 1413,-280 1413,4 -4,4"/>
<text text-anchor="start" x="683.5091" y="-42.4" font-family="sans-serif" font-weight="bold" font-size="14.00" fill="#000000">Legend</text>
<polygon fill="#ffffb3" stroke="transparent" points="470.5,-10 470.5,-30 490.5,-30 490.5,-10 470.5,-10"/>
<text text-anchor="start" x="494.129" y="-15.4" font-family="sans-serif" font-size="14.00" fill="#000000"> &#160;Declarations</text>
<polygon fill="#8dd3c7" stroke="transparent" points="583.5,-10 583.5,-30 603.5,-30 603.5,-10 583.5,-10"/>
<text text-anchor="start" x="607.2251" y="-15.4" font-family="sans-serif" font-size="14.00" fill="#000000"> &#160;Module</text>
<polygon fill="#80b1d3" stroke="transparent" points="669.5,-10 669.5,-30 689.5,-30 689.5,-10 669.5,-10"/>
<text text-anchor="start" x="693.2812" y="-15.4" font-family="sans-serif" font-size="14.00" fill="#000000"> &#160;Bootstrap</text>
<polygon fill="#fdb462" stroke="transparent" points="766.5,-10 766.5,-30 786.5,-30 786.5,-10 766.5,-10"/>
<text text-anchor="start" x="790.1732" y="-15.4" font-family="sans-serif" font-size="14.00" fill="#000000"> &#160;Providers</text>
<polygon fill="#fb8072" stroke="transparent" points="862.5,-10 862.5,-30 882.5,-30 882.5,-10 862.5,-10"/>
<text text-anchor="start" x="886.2258" y="-15.4" font-family="sans-serif" font-size="14.00" fill="#000000"> &#160;Exports</text>
<g id="clust1" class="cluster">
<title>cluster_AppModule</title>
<polygon fill="none" stroke="#000000" stroke-dasharray="1,5" points="8,-70 8,-268 1401,-268 1401,-70 8,-70"/>
</g>
<g id="clust2" class="cluster">
<title>cluster_AppModule_declarations</title>
<polygon fill="none" stroke="#000000" points="1281,-78 1281,-130 1393,-130 1393,-78 1281,-78"/>
</g>
<g id="clust4" class="cluster">
<title>cluster_AppModule_imports</title>
<polygon fill="none" stroke="#000000" points="152,-78 152,-130 1273,-130 1273,-78 152,-78"/>
</g>
<g id="clust6" class="cluster">
<title>cluster_AppModule_bootstrap</title>
<polygon fill="none" stroke="#000000" points="776,-208 776,-260 864,-260 864,-208 776,-208"/>
</g>
<g id="clust7" class="cluster">
<title>cluster_AppModule_providers</title>
<polygon fill="none" stroke="#000000" points="16,-78 16,-130 144,-130 144,-78 16,-78"/>
</g>
<!-- declarations.() -->
<g id="node1" class="node">
<title>declarations.()</title>
<polygon fill="#ffffb3" stroke="#000000" points="1385.4577,-122 1288.5423,-122 1288.5423,-86 1385.4577,-86 1385.4577,-122"/>
<text text-anchor="middle" x="1337" y="-99.8" font-family="Times,serif" font-size="14.00" fill="#000000">declarations.()</text>
</g>
<!-- AppModule -->
<g id="node2" class="node">
<title>AppModule</title>
<polygon fill="#8dd3c7" stroke="#000000" points="861.6571,-187 858.6571,-191 837.6571,-191 834.6571,-187 778.3429,-187 778.3429,-151 861.6571,-151 861.6571,-187"/>
<text text-anchor="middle" x="820" y="-164.8" font-family="Times,serif" font-size="14.00" fill="#000000">AppModule</text>
</g>
<!-- declarations.()&#45;&gt;AppModule -->
<g id="edge1" class="edge">
<title>declarations.()&#45;&gt;AppModule</title>
<path fill="none" stroke="#000000" d="M1337,-122.0109C1337,-144.4852 1337,-180 1337,-180 1337,-180 871.8703,-180 871.8703,-180"/>
<polygon fill="#000000" stroke="#000000" points="871.8704,-176.5001 861.8703,-180 871.8703,-183.5001 871.8704,-176.5001"/>
</g>
<!-- IonicApp  -->
<g id="node10" class="node">
<title>IonicApp </title>
<polygon fill="#80b1d3" stroke="#000000" points="856.3734,-252 783.6266,-252 783.6266,-216 856.3734,-216 856.3734,-252"/>
<text text-anchor="middle" x="820" y="-229.8" font-family="Times,serif" font-size="14.00" fill="#000000">IonicApp </text>
</g>
<!-- AppModule&#45;&gt;IonicApp  -->
<g id="edge9" class="edge">
<title>AppModule&#45;&gt;IonicApp </title>
<path fill="none" stroke="#000000" stroke-dasharray="1,5" d="M820,-187.1061C820,-187.1061 820,-205.991 820,-205.991"/>
<polygon fill="#000000" stroke="#000000" points="816.5001,-205.9909 820,-215.991 823.5001,-205.991 816.5001,-205.9909"/>
</g>
<!-- BrowserModule -->
<g id="node3" class="node">
<title>BrowserModule</title>
<polygon fill="#8dd3c7" stroke="#000000" points="1265.4734,-122 1262.4734,-126 1241.4734,-126 1238.4734,-122 1158.5266,-122 1158.5266,-86 1265.4734,-86 1265.4734,-122"/>
<text text-anchor="middle" x="1212" y="-99.8" font-family="Times,serif" font-size="14.00" fill="#000000">BrowserModule</text>
</g>
<!-- BrowserModule&#45;&gt;AppModule -->
<g id="edge2" class="edge">
<title>BrowserModule&#45;&gt;AppModule</title>
<path fill="none" stroke="#000000" d="M1212,-122.1289C1212,-142.5724 1212,-173 1212,-173 1212,-173 871.9509,-173 871.9509,-173"/>
<polygon fill="#000000" stroke="#000000" points="871.9509,-169.5001 861.9509,-173 871.9508,-176.5001 871.9509,-169.5001"/>
</g>
<!-- HttpModule -->
<g id="node4" class="node">
<title>HttpModule</title>
<polygon fill="#8dd3c7" stroke="#000000" points="1140.4387,-122 1137.4387,-126 1116.4387,-126 1113.4387,-122 1055.5613,-122 1055.5613,-86 1140.4387,-86 1140.4387,-122"/>
<text text-anchor="middle" x="1098" y="-99.8" font-family="Times,serif" font-size="14.00" fill="#000000">HttpModule</text>
</g>
<!-- HttpModule&#45;&gt;AppModule -->
<g id="edge3" class="edge">
<title>HttpModule&#45;&gt;AppModule</title>
<path fill="none" stroke="#000000" d="M1098,-122.2667C1098,-140.5552 1098,-166 1098,-166 1098,-166 871.9204,-166 871.9204,-166"/>
<polygon fill="#000000" stroke="#000000" points="871.9204,-162.5001 861.9204,-166 871.9204,-169.5001 871.9204,-162.5001"/>
</g>
<!-- AutoCompleteModule -->
<g id="node5" class="node">
<title>AutoCompleteModule</title>
<polygon fill="#8dd3c7" stroke="#000000" points="1037.9846,-122 1034.9846,-126 1013.9846,-126 1010.9846,-122 896.0154,-122 896.0154,-86 1037.9846,-86 1037.9846,-122"/>
<text text-anchor="middle" x="967" y="-99.8" font-family="Times,serif" font-size="14.00" fill="#000000">AutoCompleteModule</text>
</g>
<!-- AutoCompleteModule&#45;&gt;AppModule -->
<g id="edge4" class="edge">
<title>AutoCompleteModule&#45;&gt;AppModule</title>
<path fill="none" stroke="#000000" d="M967,-122.0091C967,-138.0494 967,-159 967,-159 967,-159 871.7311,-159 871.7311,-159"/>
<polygon fill="#000000" stroke="#000000" points="871.7311,-155.5001 861.7311,-159 871.7311,-162.5001 871.7311,-155.5001"/>
</g>
<!-- TagsInputModule -->
<g id="node6" class="node">
<title>TagsInputModule</title>
<polygon fill="#8dd3c7" stroke="#000000" points="878.3132,-122 875.3132,-126 854.3132,-126 851.3132,-122 761.6868,-122 761.6868,-86 878.3132,-86 878.3132,-122"/>
<text text-anchor="middle" x="820" y="-99.8" font-family="Times,serif" font-size="14.00" fill="#000000">TagsInputModule</text>
</g>
<!-- TagsInputModule&#45;&gt;AppModule -->
<g id="edge5" class="edge">
<title>TagsInputModule&#45;&gt;AppModule</title>
<path fill="none" stroke="#000000" d="M820,-122.1061C820,-122.1061 820,-140.991 820,-140.991"/>
<polygon fill="#000000" stroke="#000000" points="816.5001,-140.9909 820,-150.991 823.5001,-140.991 816.5001,-140.9909"/>
</g>
<!-- TranslateModule.forRoot(args) -->
<g id="node7" class="node">
<title>TranslateModule.forRoot(args)</title>
<polygon fill="#8dd3c7" stroke="#000000" points="743.8223,-122 740.8223,-126 719.8223,-126 716.8223,-122 552.1777,-122 552.1777,-86 743.8223,-86 743.8223,-122"/>
<text text-anchor="middle" x="648" y="-99.8" font-family="Times,serif" font-size="14.00" fill="#000000">TranslateModule.forRoot(args)</text>
</g>
<!-- TranslateModule.forRoot(args)&#45;&gt;AppModule -->
<g id="edge6" class="edge">
<title>TranslateModule.forRoot(args)&#45;&gt;AppModule</title>
<path fill="none" stroke="#000000" d="M648,-122.0091C648,-138.0494 648,-159 648,-159 648,-159 767.9241,-159 767.9241,-159"/>
<polygon fill="#000000" stroke="#000000" points="767.9241,-162.5001 777.9241,-159 767.924,-155.5001 767.9241,-162.5001"/>
</g>
<!-- IonicModule.forRoot(args) -->
<g id="node8" class="node">
<title>IonicModule.forRoot(args)</title>
<polygon fill="#8dd3c7" stroke="#000000" points="534.005,-122 531.005,-126 510.005,-126 507.005,-122 365.995,-122 365.995,-86 534.005,-86 534.005,-122"/>
<text text-anchor="middle" x="450" y="-99.8" font-family="Times,serif" font-size="14.00" fill="#000000">IonicModule.forRoot(args)</text>
</g>
<!-- IonicModule.forRoot(args)&#45;&gt;AppModule -->
<g id="edge7" class="edge">
<title>IonicModule.forRoot(args)&#45;&gt;AppModule</title>
<path fill="none" stroke="#000000" d="M450,-122.2667C450,-140.5552 450,-166 450,-166 450,-166 768.2755,-166 768.2755,-166"/>
<polygon fill="#000000" stroke="#000000" points="768.2756,-169.5001 778.2755,-166 768.2755,-162.5001 768.2756,-169.5001"/>
</g>
<!-- IonicStorageModule.forRoot() -->
<g id="node9" class="node">
<title>IonicStorageModule.forRoot()</title>
<polygon fill="#8dd3c7" stroke="#000000" points="347.9487,-122 344.9487,-126 323.9487,-126 320.9487,-122 160.0513,-122 160.0513,-86 347.9487,-86 347.9487,-122"/>
<text text-anchor="middle" x="254" y="-99.8" font-family="Times,serif" font-size="14.00" fill="#000000">IonicStorageModule.forRoot()</text>
</g>
<!-- IonicStorageModule.forRoot()&#45;&gt;AppModule -->
<g id="edge8" class="edge">
<title>IonicStorageModule.forRoot()&#45;&gt;AppModule</title>
<path fill="none" stroke="#000000" d="M254,-122.1289C254,-142.5724 254,-173 254,-173 254,-173 767.9204,-173 767.9204,-173"/>
<polygon fill="#000000" stroke="#000000" points="767.9205,-176.5001 777.9204,-173 767.9204,-169.5001 767.9205,-176.5001"/>
</g>
<!-- providers.() -->
<g id="node11" class="node">
<title>providers.()</title>
<ellipse fill="#fdb462" stroke="#000000" cx="80" cy="-104" rx="56.2" ry="18"/>
<text text-anchor="middle" x="80" y="-99.8" font-family="Times,serif" font-size="14.00" fill="#000000">providers.()</text>
</g>
<!-- providers.()&#45;&gt;AppModule -->
<g id="edge10" class="edge">
<title>providers.()&#45;&gt;AppModule</title>
<path fill="none" stroke="#000000" d="M80,-122.0109C80,-144.4852 80,-180 80,-180 80,-180 768.0941,-180 768.0941,-180"/>
<polygon fill="#000000" stroke="#000000" points="768.0942,-183.5001 778.0941,-180 768.0941,-176.5001 768.0942,-183.5001"/>
</g>
</g>
</svg>
